<?xml version="1.0" encoding="UTF-8" standalone="no"?>
<!DOCTYPE svg PUBLIC "-//W3C//DTD SVG 1.1//EN"
 "http://www.w3.org/Graphics/SVG/1.1/DTD/svg11.dtd">
<!-- Generated by graphviz version 2.40.1 (20161225.0304)
 -->
<!-- Title: dependencies Pages: 1 -->
<svg width="1068pt" height="284pt"
 viewBox="0.00 0.00 1068.00 284.00" xmlns="http://www.w3.org/2000/svg" xmlns:xlink="http://www.w3.org/1999/xlink">
<g id="graph0" class="graph" transform="scale(1 1) rotate(0) translate(4 280)">
<title>dependencies</title>
<polygon fill="#ffffff" stroke="transparent" points="-4,4 -4,-280 1064,-280 1064,4 -4,4"/>
<text text-anchor="start" x="509.0091" y="-42.4" font-family="sans-serif" font-weight="bold" font-size="14.00" fill="#000000">Legend</text>
<polygon fill="#ffffb3" stroke="transparent" points="296,-10 296,-30 316,-30 316,-10 296,-10"/>
<text text-anchor="start" x="319.629" y="-15.4" font-family="sans-serif" font-size="14.00" fill="#000000"> &#160;Declarations</text>
<polygon fill="#8dd3c7" stroke="transparent" points="409,-10 409,-30 429,-30 429,-10 409,-10"/>
<text text-anchor="start" x="432.7251" y="-15.4" font-family="sans-serif" font-size="14.00" fill="#000000"> &#160;Module</text>
<polygon fill="#80b1d3" stroke="transparent" points="495,-10 495,-30 515,-30 515,-10 495,-10"/>
<text text-anchor="start" x="518.7812" y="-15.4" font-family="sans-serif" font-size="14.00" fill="#000000"> &#160;Bootstrap</text>
<polygon fill="#fdb462" stroke="transparent" points="592,-10 592,-30 612,-30 612,-10 592,-10"/>
<text text-anchor="start" x="615.6732" y="-15.4" font-family="sans-serif" font-size="14.00" fill="#000000"> &#160;Providers</text>
<polygon fill="#fb8072" stroke="transparent" points="688,-10 688,-30 708,-30 708,-10 688,-10"/>
<text text-anchor="start" x="711.7258" y="-15.4" font-family="sans-serif" font-size="14.00" fill="#000000"> &#160;Exports</text>
<g id="clust1" class="cluster">
<title>cluster_AppModule</title>
<polygon fill="none" stroke="#000000" stroke-dasharray="1,5" points="8,-70 8,-268 1052,-268 1052,-70 8,-70"/>
</g>
<g id="clust2" class="cluster">
<title>cluster_AppModule_declarations</title>
<polygon fill="none" stroke="#000000" points="168,-78 168,-130 1044,-130 1044,-78 168,-78"/>
</g>
<g id="clust8" class="cluster">
<title>cluster_AppModule_imports</title>
<polygon fill="none" stroke="#000000" points="16,-78 16,-130 160,-130 160,-78 16,-78"/>
</g>
<g id="clust10" class="cluster">
<title>cluster_AppModule_bootstrap</title>
<polygon fill="none" stroke="#000000" points="512,-208 512,-260 636,-260 636,-208 512,-208"/>
</g>
<!-- AppComponent -->
<g id="node1" class="node">
<title>AppComponent</title>
<polygon fill="#ffffb3" stroke="#000000" points="1035.9399,-122 930.0601,-122 930.0601,-86 1035.9399,-86 1035.9399,-122"/>
<text text-anchor="middle" x="983" y="-99.8" font-family="Times,serif" font-size="14.00" fill="#000000">AppComponent</text>
</g>
<!-- AppModule -->
<g id="node6" class="node">
<title>AppModule</title>
<polygon fill="#8dd3c7" stroke="#000000" points="615.6571,-187 612.6571,-191 591.6571,-191 588.6571,-187 532.3429,-187 532.3429,-151 615.6571,-151 615.6571,-187"/>
<text text-anchor="middle" x="574" y="-164.8" font-family="Times,serif" font-size="14.00" fill="#000000">AppModule</text>
</g>
<!-- AppComponent&#45;&gt;AppModule -->
<g id="edge1" class="edge">
<title>AppComponent&#45;&gt;AppModule</title>
<path fill="none" stroke="#000000" d="M983,-122.2843C983,-143.3211 983,-175 983,-175 983,-175 625.8481,-175 625.8481,-175"/>
<polygon fill="#000000" stroke="#000000" points="625.8481,-171.5001 615.8481,-175 625.8481,-178.5001 625.8481,-171.5001"/>
</g>
<!-- EventDetailComponent -->
<g id="node2" class="node">
<title>EventDetailComponent</title>
<polygon fill="#ffffb3" stroke="#000000" points="912.1979,-122 763.8021,-122 763.8021,-86 912.1979,-86 912.1979,-122"/>
<text text-anchor="middle" x="838" y="-99.8" font-family="Times,serif" font-size="14.00" fill="#000000">EventDetailComponent</text>
</g>
<!-- EventDetailComponent&#45;&gt;AppModule -->
<g id="edge2" class="edge">
<title>EventDetailComponent&#45;&gt;AppModule</title>
<path fill="none" stroke="#000000" d="M838,-122.0225C838,-139.3734 838,-163 838,-163 838,-163 625.8316,-163 625.8316,-163"/>
<polygon fill="#000000" stroke="#000000" points="625.8316,-159.5001 615.8316,-163 625.8315,-166.5001 625.8316,-159.5001"/>
</g>
<!-- EventListItemComponent -->
<g id="node3" class="node">
<title>EventListItemComponent</title>
<polygon fill="#ffffb3" stroke="#000000" points="745.9256,-122 584.0744,-122 584.0744,-86 745.9256,-86 745.9256,-122"/>
<text text-anchor="middle" x="665" y="-99.8" font-family="Times,serif" font-size="14.00" fill="#000000">EventListItemComponent</text>
</g>
<!-- EventListItemComponent&#45;&gt;AppModule -->
<g id="edge3" class="edge">
<title>EventListItemComponent&#45;&gt;AppModule</title>
<path fill="none" stroke="#000000" d="M600.0579,-122.1061C600.0579,-122.1061 600.0579,-140.991 600.0579,-140.991"/>
<polygon fill="#000000" stroke="#000000" points="596.5579,-140.9909 600.0579,-150.991 603.5579,-140.991 596.5579,-140.9909"/>
</g>
<!-- MapViewPageComponent -->
<g id="node4" class="node">
<title>MapViewPageComponent</title>
<polygon fill="#ffffb3" stroke="#000000" points="566.0225,-122 401.9775,-122 401.9775,-86 566.0225,-86 566.0225,-122"/>
<text text-anchor="middle" x="484" y="-99.8" font-family="Times,serif" font-size="14.00" fill="#000000">MapViewPageComponent</text>
</g>
<!-- MapViewPageComponent&#45;&gt;AppModule -->
<g id="edge4" class="edge">
<title>MapViewPageComponent&#45;&gt;AppModule</title>
<path fill="none" stroke="#000000" d="M549.2164,-122.1061C549.2164,-122.1061 549.2164,-140.991 549.2164,-140.991"/>
<polygon fill="#000000" stroke="#000000" points="545.7164,-140.9909 549.2164,-150.991 552.7164,-140.991 545.7164,-140.9909"/>
</g>
<!-- MasterEventsListPageComponent -->
<g id="node5" class="node">
<title>MasterEventsListPageComponent</title>
<polygon fill="#ffffb3" stroke="#000000" points="383.7948,-122 176.2052,-122 176.2052,-86 383.7948,-86 383.7948,-122"/>
<text text-anchor="middle" x="280" y="-99.8" font-family="Times,serif" font-size="14.00" fill="#000000">MasterEventsListPageComponent</text>
</g>
<!-- MasterEventsListPageComponent&#45;&gt;AppModule -->
<g id="edge5" class="edge">
<title>MasterEventsListPageComponent&#45;&gt;AppModule</title>
<path fill="none" stroke="#000000" d="M280,-122.0225C280,-139.3734 280,-163 280,-163 280,-163 522.1892,-163 522.1892,-163"/>
<polygon fill="#000000" stroke="#000000" points="522.1892,-166.5001 532.1892,-163 522.1892,-159.5001 522.1892,-166.5001"/>
</g>
<!-- AppComponent  -->
<g id="node8" class="node">
<title>AppComponent </title>
<polygon fill="#80b1d3" stroke="#000000" points="628.439,-252 519.561,-252 519.561,-216 628.439,-216 628.439,-252"/>
<text text-anchor="middle" x="574" y="-229.8" font-family="Times,serif" font-size="14.00" fill="#000000">AppComponent </text>
</g>
<!-- AppModule&#45;&gt;AppComponent  -->
<g id="edge7" class="edge">
<title>AppModule&#45;&gt;AppComponent </title>
<path fill="none" stroke="#000000" stroke-dasharray="1,5" d="M574,-187.1061C574,-187.1061 574,-205.991 574,-205.991"/>
<polygon fill="#000000" stroke="#000000" points="570.5001,-205.9909 574,-215.991 577.5001,-205.991 570.5001,-205.9909"/>
</g>
<!-- AppRoutingModule -->
<g id="node7" class="node">
<title>AppRoutingModule</title>
<polygon fill="#8dd3c7" stroke="#000000" points="152.2744,-122 149.2744,-126 128.2744,-126 125.2744,-122 23.7256,-122 23.7256,-86 152.2744,-86 152.2744,-122"/>
<text text-anchor="middle" x="88" y="-99.8" font-family="Times,serif" font-size="14.00" fill="#000000">AppRoutingModule</text>
</g>
<!-- AppRoutingModule&#45;&gt;AppModule -->
<g id="edge6" class="edge">
<title>AppRoutingModule&#45;&gt;AppModule</title>
<path fill="none" stroke="#000000" d="M88,-122.2843C88,-143.3211 88,-175 88,-175 88,-175 522.1433,-175 522.1433,-175"/>
<polygon fill="#000000" stroke="#000000" points="522.1433,-178.5001 532.1433,-175 522.1432,-171.5001 522.1433,-178.5001"/>
</g>
</g>
</svg>
